<?xml version="1.0" encoding="UTF-8" standalone="no"?>
<!-- Created with Inkscape (http://www.inkscape.org/) -->

<svg
   xmlns:dc="http://purl.org/dc/elements/1.1/"
   xmlns:cc="http://creativecommons.org/ns#"
   xmlns:rdf="http://www.w3.org/1999/02/22-rdf-syntax-ns#"
   xmlns:svg="http://www.w3.org/2000/svg"
   xmlns="http://www.w3.org/2000/svg"
   xmlns:xlink="http://www.w3.org/1999/xlink"
   xmlns:sodipodi="http://sodipodi.sourceforge.net/DTD/sodipodi-0.dtd"
   xmlns:inkscape="http://www.inkscape.org/namespaces/inkscape"
   width="744.09448819"
   height="1052.3622047"
   id="svg3178"
   version="1.1"
   inkscape:version="0.48.4 r9939"
   sodipodi:docname="pplane.svg"
   inkscape:export-filename="/home/tudor/Documents/svg/pplane.png"
   inkscape:export-xdpi="90"
   inkscape:export-ydpi="90">
  <defs
     id="defs3180">
    <linearGradient
       inkscape:collect="always"
       id="linearGradient4134">
      <stop
         style="stop-color:#f2f2f2;stop-opacity:1;"
         offset="0"
         id="stop4136" />
      <stop
         style="stop-color:#f2f2f2;stop-opacity:0;"
         offset="1"
         id="stop4138" />
    </linearGradient>
    <linearGradient
       inkscape:collect="always"
       id="linearGradient4126">
      <stop
         style="stop-color:#f9f9f9;stop-opacity:1;"
         offset="0"
         id="stop4128" />
      <stop
         style="stop-color:#f9f9f9;stop-opacity:0;"
         offset="1"
         id="stop4130" />
    </linearGradient>
    <linearGradient
       inkscape:collect="always"
       id="linearGradient4114">
      <stop
         style="stop-color:#e6e6e6;stop-opacity:1;"
         offset="0"
         id="stop4116" />
      <stop
         style="stop-color:#e6e6e6;stop-opacity:0;"
         offset="1"
         id="stop4118" />
    </linearGradient>
    <linearGradient
       inkscape:collect="always"
       xlink:href="#linearGradient4114"
       id="linearGradient4124"
       x1="281.40134"
       y1="487.58704"
       x2="359.20312"
       y2="487.58704"
       gradientUnits="userSpaceOnUse" />
    <linearGradient
       inkscape:collect="always"
       xlink:href="#linearGradient4126"
       id="linearGradient4132"
       x1="325.52558"
       y1="355.91213"
       x2="573.53204"
       y2="355.91213"
       gradientUnits="userSpaceOnUse" />
    <linearGradient
       inkscape:collect="always"
       xlink:href="#linearGradient4134"
       id="linearGradient4140"
       x1="155.44051"
       y1="323.83978"
       x2="568.64793"
       y2="323.83978"
       gradientUnits="userSpaceOnUse" />
    <linearGradient
       inkscape:collect="always"
       xlink:href="#linearGradient4126"
       id="linearGradient4226"
       gradientUnits="userSpaceOnUse"
       x1="325.52558"
       y1="355.91213"
       x2="573.53204"
       y2="355.91213" />
    <linearGradient
       inkscape:collect="always"
       xlink:href="#linearGradient4134"
       id="linearGradient4228"
       gradientUnits="userSpaceOnUse"
       x1="155.44051"
       y1="323.83978"
       x2="568.64793"
       y2="323.83978" />
    <linearGradient
       inkscape:collect="always"
       xlink:href="#linearGradient4114"
       id="linearGradient4230"
       gradientUnits="userSpaceOnUse"
       x1="281.40134"
       y1="487.58704"
       x2="359.20312"
       y2="487.58704" />
  </defs>
  <sodipodi:namedview
     id="base"
     pagecolor="#ffffff"
     bordercolor="#666666"
     borderopacity="1.0"
     inkscape:pageopacity="0.0"
     inkscape:pageshadow="2"
     inkscape:zoom="0.57035974"
     inkscape:cx="45.703799"
     inkscape:cy="629.65098"
     inkscape:document-units="px"
     inkscape:current-layer="layer1"
     showgrid="false"
     inkscape:window-width="1321"
     inkscape:window-height="744"
     inkscape:window-x="45"
     inkscape:window-y="24"
     inkscape:window-maximized="1" />
  <metadata
     id="metadata3183">
    <rdf:RDF>
      <cc:Work
         rdf:about="">
        <dc:format>image/svg+xml</dc:format>
        <dc:type
           rdf:resource="http://purl.org/dc/dcmitype/StillImage" />
        <dc:title></dc:title>
      </cc:Work>
    </rdf:RDF>
  </metadata>
  <g
     inkscape:groupmode="layer"
     id="layer2"
     inkscape:label="photograph"
     style="display:none" />
  <g
     inkscape:label="Layer 1"
     inkscape:groupmode="layer"
     id="layer1"
     style="display:inline">
    <path
       style="fill:#fcfcfc;opacity:1;fill-opacity:0"
       d="m 1.1428347,372.36219 0,-370.2857056 370.2857053,0 370.28571,0 0,370.2857056 0,370.28571 -370.28571,0 -370.2857053,0 0,-370.28571 z"
       id="path3254"
       inkscape:connector-curvature="0" />
    <g
       id="g4220"
       transform="translate(-14.026235,-21.039353)">
      <path
         id="path3250"
         d="m 319.68018,495.65266 c 20.50209,-21.08169 38.09782,-38.33035 39.1016,-38.33035 1.00379,0 19.91854,6.84929 42.03278,15.22064 22.11423,8.37136 40.33349,15.04301 40.48723,14.82589 0.87694,-1.23843 133.82247,-260.43361 133.82247,-260.90488 0,-1.43415 -6.5453,0.81108 -65.39726,22.43321 -34.43643,12.65189 -127.70095,46.88633 -207.25451,76.0765 -79.55358,29.19019 -145.61922,53.61564 -146.81252,54.27879 -1.744,0.96918 -1.46023,1.47012 1.44643,2.55345 86.61257,32.2811 105.39913,39.85693 106.08951,42.78141 0.4003,1.69576 4.49336,27.00351 9.09566,56.23945 4.6023,29.23594 8.76028,53.15625 9.23994,53.15625 0.47967,0 17.64658,-17.24866 38.14867,-38.33036 z"
         style="fill:#ececec;fill-rule:nonzero"
         inkscape:connector-curvature="0" />
      <path
         inkscape:connector-curvature="0"
         id="path3302"
         d="m 459.86385,449.3519 c 10.05595,-19.67158 39.84607,-77.68307 66.20027,-128.91444 26.3542,-51.23137 47.71382,-93.35088 47.46578,-93.59889 -0.24802,-0.24802 -19.34193,15.95828 -42.43091,36.01401 -62.59141,54.36863 -98.18602,85.22897 -154.45682,133.91319 -27.92687,24.16171 -50.92819,44.33939 -51.11406,44.83929 -0.18586,0.4999 9.90298,4.67422 22.41965,9.27625 12.51667,4.60203 37.7281,14.12936 56.02542,21.17186 18.29733,7.0425 34.2442,12.86321 35.4375,12.93489 1.42572,0.0856 8.43876,-12.13338 20.45317,-35.63616 z"
         style="fill:url(#linearGradient4226);fill-opacity:1" />
      <path
         inkscape:connector-curvature="0"
         id="path3252"
         d="m 315.96808,386.62045 c 60.6206,-38.078 92.47655,-58.10188 165.38903,-103.95956 28.24152,-17.76226 59.15893,-37.13561 68.70536,-43.05188 9.54642,-5.91627 17.90306,-11.26477 18.57032,-11.88555 0.66725,-0.62079 -20.81222,6.96568 -47.73215,16.85884 -26.91993,9.89313 -56.75603,20.84508 -66.30246,24.33766 -9.54643,3.49256 -30.04955,11.01259 -45.5625,16.71115 -15.51294,5.69857 -37.6433,13.81098 -49.17857,18.02758 -19.0206,6.95279 -75.20099,27.60039 -148.25892,54.48857 -15.11518,5.56299 -34.18265,12.49199 -42.37217,15.39781 -8.18952,2.90581 -14.373,5.46511 -13.74107,5.68734 1.11488,0.39207 106.51002,40.55285 106.96527,40.75908 0.12483,0.0566 24.20789,-14.96041 53.51786,-33.37104 z"
         style="fill:url(#linearGradient4228);fill-opacity:1" />
      <path
         inkscape:connector-curvature="0"
         id="path3336"
         d="m 326.98661,441.3443 -45.58526,92.48549 0,-0.87664 77.80177,-76.26765 z"
         style="fill:url(#linearGradient4230);fill-opacity:1;stroke:none" />
    </g>
  </g>
</svg>
